<svg xmlns="http://www.w3.org/2000/svg" viewBox="0 0 498.24 65.47"><defs><style>.cls-1,.cls-3{fill:none;}.cls-1{stroke:#fff;stroke-miterlimit:10;}.cls-2{fill:#fff;}</style></defs><title>logo blanco</title><g id="Capa_2" data-name="Capa 2"><g id="Capa_17" data-name="Capa 17"><path class="cls-1" d="M46.45,32.75q0,15.74,0,31.46c0,.57-.08.77-.72.76-9.85,0-19.7,0-29.55,0A16,16,0,0,1,.75,51.78,18.49,18.49,0,0,1,.5,48.72q0-16.24,0-32.5A16.06,16.06,0,0,1,14.24.65,19.93,19.93,0,0,1,16.56.51Q31.13.53,45.7.5c.63,0,.77.17.77.78Q46.44,17,46.45,32.75ZM4,37.09c-.1.19,0,.3.06.42q2.82,6.36,5.62,12.72c.19.42.47.41.81.41q13.09,0,26.2,0a.84.84,0,0,0,.88-.54c2.05-4.13,4.12-8.26,6.17-12.39.1-.19.29-.36.19-.63-.84,0-1.68,0-2.53,0a.73.73,0,0,1-.79-.47Q36.78,28.82,32.93,21L24.62,4.14c-.4-.81-1.2.29-1.66-.36-.08-.11-.22.22-.3.37-.47,1-.93,2-1.4,3q-7,14.73-14,29.48a.76.76,0,0,1-.83.51C5.59,37.07,4.77,37.09,4,37.09Z"/><path class="cls-1" d="M48.76,32.76q0-15.76,0-31.53c0-.61.17-.73.75-.73,9.85,0,19.7,0,29.54,0A16,16,0,0,1,94.49,14a20.12,20.12,0,0,1,.19,2.79V49a16,16,0,0,1-16,16q-14.61,0-29.2,0c-.63,0-.74-.17-.74-.75Q48.77,48.49,48.76,32.76ZM91.4,37.09c-.92,0-1.71,0-2.5,0a.93.93,0,0,1-1-.63Q80,20.41,72.08,4.35c-.21-.44-.37-.78-.9-.38a.33.33,0,0,1-.39,0c-.48-.34-.67-.07-.87.36Q62.24,20.49,54.55,36.64a.67.67,0,0,1-.71.46c-.85,0-1.7,0-2.62,0,.07.17.1.25.14.33Q54.2,43.84,57,50.25c.17.39.43.39.75.39q13.14,0,26.27,0a.84.84,0,0,0,.87-.57c.81-1.68,1.65-3.34,2.49-5Z"/><path class="cls-2" d="M188.73,33.13a33.77,33.77,0,0,1,3.41-14.64c4-8,10.33-13,19.32-14.06,6.91-.85,13.34.53,18.87,5a26,26,0,0,1,8.47,13.41A39.71,39.71,0,0,1,240,38.09a32.74,32.74,0,0,1-3.72,12.61,23.51,23.51,0,0,1-18.31,12.52,25.74,25.74,0,0,1-14.06-1.72,23.54,23.54,0,0,1-12.23-12.57C189.56,44.28,188.73,39.37,188.73,33.13Zm12.74.38a34.66,34.66,0,0,0,.42,5.67,20.51,20.51,0,0,0,3.4,9,10.87,10.87,0,0,0,10.84,4.84A10.71,10.71,0,0,0,223.8,48c2.9-4.39,3.57-9.37,3.61-14.47a28,28,0,0,0-.61-6c-.8-3.67-2.1-7.09-4.85-9.79A10.3,10.3,0,0,0,211.24,15c-3.49,1-5.68,3.56-7.23,6.71A28.22,28.22,0,0,0,201.47,33.51Z"/><path class="cls-2" d="M291,33.78q0-13.92,0-27.84c0-.64.18-.76.79-.76q15.76,0,31.53,0c.63,0,.74.19.73.76,0,3.06,0,6.11,0,9.17,0,.59-.12.76-.74.76-6.48,0-12.95,0-19.43,0-.63,0-.73.18-.72.76,0,3.53,0,7.07,0,10.6,0,.48.12.6.6.6,6.13,0,12.26,0,18.4,0,.62,0,.73.16.73.75q-.06,4.55,0,9.09c0,.64-.19.72-.76.72-6.08,0-12.17,0-18.26,0-.55,0-.72.1-.72.69q0,6.12,0,12.24c0,.56.16.66.68.66,6.86,0,13.72,0,20.59,0,.57,0,.77.1.76.74,0,3.1,0,6.2,0,9.3,0,.51-.12.64-.64.64q-16.46,0-32.9,0c-.59,0-.64-.21-.64-.7Q291,47.8,291,33.78Z"/><path class="cls-2" d="M248.58,49.15c1.25.59,2.44,1.19,3.7,1.66a26.5,26.5,0,0,0,11,1.85A9.14,9.14,0,0,0,268,51.18a5.72,5.72,0,0,0,.84-8.61,16.4,16.4,0,0,0-5.74-3.47,51.22,51.22,0,0,1-7.67-3.54,17.88,17.88,0,0,1-7.18-7.49,16.36,16.36,0,0,1,6-20.45,22.33,22.33,0,0,1,11.45-3.36A32,32,0,0,1,280,6.8c.52.23.64.45.49,1-.82,3.05-1.62,6.11-2.38,9.18-.14.53-.29.59-.76.35a23,23,0,0,0-11.7-2.42,8.36,8.36,0,0,0-4.43,1.41,4.94,4.94,0,0,0-.49,7.84A18.13,18.13,0,0,0,265.44,27c2.54,1.18,5.2,2.07,7.66,3.42a20.41,20.41,0,0,1,6.75,5.56,15.69,15.69,0,0,1,2.95,10.22A16.25,16.25,0,0,1,278,57.58a18.5,18.5,0,0,1-9.15,4.9,34.64,34.64,0,0,1-21-1.73c-1.85-.74-1.83-.77-1.39-2.71Z"/><path class="cls-2" d="M144,50.76c.32,1.78.64,3.54,1,5.31.25,1.39.47,2.78.77,4.16.12.55,0,.76-.53,1a25.51,25.51,0,0,1-6.58,1.7A43.54,43.54,0,0,1,126.5,63c-10.75-1.51-18.66-8.48-21.29-19.07a35.54,35.54,0,0,1,1.7-23.47C110.65,11.93,117.3,6.88,126.29,5a34.68,34.68,0,0,1,18.07.92c2.18.7,2.16.72,1.64,2.89q-.94,3.87-1.85,7.76c-.11.46-.21.55-.69.35a23.33,23.33,0,0,0-13.3-1.57A14.67,14.67,0,0,0,118.38,25a24.1,24.1,0,0,0,.2,18.26c2.23,5.36,6.46,8.34,12.16,9.15C135.15,53,139,52.46,144,50.76Z"/><path class="cls-2" d="M153.74,33.84q0-14,0-27.91c0-.57.08-.77.72-.76q5.34.06,10.67,0c.7,0,.79.21.79.83q0,22.4,0,44.8c0,.68.14.86.84.85,6.54,0,13.08,0,19.63,0,.72,0,.84.21.84.87,0,3.13,0,6.25,0,9.37,0,.46-.05.67-.61.67q-16.11,0-32.21,0c-.62,0-.63-.25-.63-.72Q153.75,47.83,153.74,33.84Z"/><path class="cls-2" d="M421.18,62.52c-2.38,0-4.72,0-7.07,0-.41,0-.4-.28-.48-.53L409,47.37c-.26-.82-.55-1.64-.79-2.47a.49.49,0,0,0-.56-.43H389.59c-.46,0-.49.27-.59.58-1.72,5.58-3.45,11.15-5.14,16.74a.86.86,0,0,1-1,.74c-2.1,0-4.19,0-6.38,0,.25-.82.47-1.58.72-2.35Q385.78,33,394.38,5.84c.15-.47.33-.68.87-.67,2.4,0,4.79,0,7.18,0,.35,0,.57,0,.7.45q9,28.29,18,56.58C421.14,62.3,421.15,62.39,421.18,62.52ZM398.65,11.8c-.85,3-1.54,6.05-2.45,9-1.77,5.78-3.6,11.55-5.41,17.31-.12.37-.25.61.35.61q7.49,0,15,0c.5,0,.49-.17.37-.55-.6-1.86-1.2-3.72-1.78-5.59-1.77-5.75-3.8-11.43-5.21-17.3C399.22,14.12,398.93,13,398.65,11.8Z"/><path class="cls-2" d="M468.12,33.78q0-14,0-27.91c0-.57.14-.69.7-.69q13.76,0,27.5,0c.56,0,.73.1.72.69,0,1.64,0,3.29,0,4.93,0,.53-.16.63-.66.62H475.92c-1,0-.89-.12-.89.86,0,5.52,0,11,0,16.55,0,.62.17.74.76.74,6.45,0,12.9,0,19.36,0,.56,0,.73.12.71.7,0,1.6,0,3.19,0,4.79,0,.56-.17.67-.7.67-6.45,0-12.9,0-19.36,0-.64,0-.77.19-.77.8,0,6.31,0,12.63,0,18.94,0,1-.13.89.86.89,7.2,0,14.41,0,21.61,0,.62,0,.75.17.73.75,0,1.59,0,3.19,0,4.79,0,.55-.1.71-.69.71q-12.42,0-24.83,0c-1.3,0-2.6,0-3.9,0-.57,0-.7-.13-.7-.7Q468.14,47.8,468.12,33.78Z"/><path class="cls-2" d="M428,53.45a23.43,23.43,0,0,0,7.84,3.25,17.75,17.75,0,0,0,9.18-.18c5-1.61,7.17-5.85,6.51-10.83-.44-3.39-2.52-5.6-5.29-7.3a41.29,41.29,0,0,0-6-2.84,26.43,26.43,0,0,1-8.26-5A14.23,14.23,0,0,1,427.43,18c.69-6.83,5.52-11.95,12.69-13.35a24,24,0,0,1,15.52,1.87c.94.47.93.49.6,1.52-.47,1.5-1,3-1.4,4.49-.14.46-.29.48-.69.26a19.73,19.73,0,0,0-10.64-2.43,9.64,9.64,0,0,0-7.35,3.36,8.76,8.76,0,0,0,1.21,12,26.88,26.88,0,0,0,7,3.94,33.9,33.9,0,0,1,9,5,14.64,14.64,0,0,1,5.37,11.35A16.47,16.47,0,0,1,456,56.16a15.76,15.76,0,0,1-10.13,6.54,27.53,27.53,0,0,1-18.1-2.11c-1.55-.73-1.54-.76-1.08-2.39S427.51,55.09,428,53.45Z"/><path class="cls-2" d="M370,12.83A20.36,20.36,0,0,0,364.74,11c-5.27-1-10.43-.83-15.33,1.58a18.67,18.67,0,0,0-9.47,11.15,30.13,30.13,0,0,0-1.59,9.65,29.27,29.27,0,0,0,2,11.83c2.85,6.89,8,10.78,15.38,11.68a26.11,26.11,0,0,0,14.21-2.06.92.92,0,0,1,.24-.06c.45,1.83.89,3.66,1.36,5.49.1.39-.16.47-.41.58a22.25,22.25,0,0,1-5.52,1.72,36.81,36.81,0,0,1-13.11.36c-9.5-1.61-16-6.95-19.38-16a36.6,36.6,0,0,1-2-15.46A31.57,31.57,0,0,1,334.89,18a25.32,25.32,0,0,1,19-13.3,32.22,32.22,0,0,1,15.38,1.1c.71.23,1.38.57,2.07.87.21.1.37.19.28.51C371,9,370.52,10.89,370,12.83Z"/><path class="cls-2" d="M4,37.09c.79,0,1.61,0,2.42,0a.76.76,0,0,0,.83-.51q7-14.75,14-29.48c.47-1,.93-2,1.4-3,.08-.15.22-.48.3-.37.46.65,1.26-.45,1.66.36L32.93,21q3.84,7.8,7.66,15.61a.73.73,0,0,0,.79.47c.85,0,1.69,0,2.53,0,.1.27-.09.44-.19.63-2,4.13-4.12,8.26-6.17,12.39a.84.84,0,0,1-.88.54q-13.09,0-26.2,0c-.34,0-.62,0-.81-.41Q6.87,43.86,4,37.51C4,37.39,3.88,37.28,4,37.09Zm34.92,0c-5.09-10.35-10.14-20.62-15.25-31L8.9,37.06Z"/><path class="cls-2" d="M91.4,37.09l-4,8c-.84,1.67-1.68,3.33-2.49,5a.84.84,0,0,1-.87.57q-13.14,0-26.27,0c-.32,0-.58,0-.75-.39q-2.82-6.42-5.67-12.83c0-.08-.07-.16-.14-.33.92,0,1.77,0,2.62,0a.67.67,0,0,0,.71-.46Q62.23,20.47,69.92,4.32c.2-.43.39-.7.87-.36a.33.33,0,0,0,.39,0c.53-.4.69-.06.9.38Q80,20.4,87.87,36.47a.93.93,0,0,0,1,.63C89.69,37.05,90.48,37.09,91.4,37.09Zm-35.15,0h30C81.17,26.72,76.1,16.43,71,6.07Z"/><path class="cls-3" d="M38.9,37.06H8.9l14.75-31C28.76,16.44,33.81,26.71,38.9,37.06Z"/><path class="cls-3" d="M56.25,37.06,71,6.07c5.1,10.36,10.17,20.65,15.25,31Z"/></g></g></svg>